<svg xmlns="http://www.w3.org/2000/svg" width="112" height="112" viewBox="0 0 112 112">
  <g id="Group_13322" data-name="Group 13322" transform="translate(-664 -8795.438)">
    <circle id="Ellipse_36" data-name="Ellipse 36" cx="56" cy="56" r="56" transform="translate(664 8795.438)" fill="#f2f6fc"/>
    <g id="success_2_" data-name="success (2)" transform="translate(635.769 8818.326)">
      <circle id="Ellipse_375" data-name="Ellipse 375" cx="7.453" cy="7.453" r="7.453" transform="translate(76.411 25.626)" fill="#26dfad"/>
      <path id="Path_12879" data-name="Path 12879" d="M109.156,179.685h0a4.368,4.368,0,0,0-4.366,4.368v4.288a15.3,15.3,0,0,1-30.607,0v-4.288a4.367,4.367,0,1,0-8.733,0v4.208A24,24,0,0,0,75,207.446a1.345,1.345,0,0,1,.534,1.073v11.814a1.348,1.348,0,0,0,1.348,1.348h24.954a1.348,1.348,0,0,0,1.348-1.348V208.639a1.345,1.345,0,0,1,.54-1.078A24.4,24.4,0,0,0,113.521,188v-3.949A4.368,4.368,0,0,0,109.156,179.685Z" transform="translate(-5.504 -155.458)" fill="#26dfad"/>
      <path id="Path_12880" data-name="Path 12880" d="M169.621,12.587a1.459,1.459,0,0,1,.33,1l-.253,4.885a1.458,1.458,0,0,0,1.994,1.43l4.476-1.779a1.458,1.458,0,0,1,1.077,0l4.476,1.779a1.458,1.458,0,0,0,1.994-1.43l-.253-4.885a1.457,1.457,0,0,1,.33-1l3.024-3.673a1.458,1.458,0,0,0-.731-2.33l-4.7-1.32a1.458,1.458,0,0,1-.823-.6L177.924.656a1.458,1.458,0,0,0-2.435,0l-2.641,4.006a1.458,1.458,0,0,1-.823.6l-4.7,1.32a1.458,1.458,0,0,0-.731,2.33Z" transform="translate(-92.726)" fill="#ecb74b"/>
      <path id="Path_12881" data-name="Path 12881" d="M70.546,55.74a2.022,2.022,0,0,0,0-2.86l-8.007-8.007a2.022,2.022,0,0,0-2.86,2.86l8.007,8.007A2.022,2.022,0,0,0,70.546,55.74Z" transform="translate(0 -38.31)" fill="#ecb74b"/>
      <path id="Path_12882" data-name="Path 12882" d="M354.15,44.873a2.023,2.023,0,0,0-2.86,0l-8.007,8.007a2.022,2.022,0,0,0,2.86,2.86l8.007-8.007A2.022,2.022,0,0,0,354.15,44.873Z" transform="translate(-245.367 -38.31)" fill="#ecb74b"/>
    </g>
  </g>
</svg>
