<svg xmlns="http://www.w3.org/2000/svg" width="60.401" height="58.244" viewBox="0 0 60.401 58.244">
  <g id="access" transform="translate(-2 -3)">
    <path id="Path_27916" data-name="Path 27916" d="M55.93,3H8.472A6.356,6.356,0,0,0,2,9.472V41.829A6.356,6.356,0,0,0,8.472,48.3H55.93A6.356,6.356,0,0,0,62.4,41.829V9.472A6.356,6.356,0,0,0,55.93,3ZM20.768,23.925,14.3,30.4a2.085,2.085,0,0,1-3.02,0,2.085,2.085,0,0,1,0-3.02l4.962-4.962-4.962-4.962a2.136,2.136,0,1,1,3.02-3.02L20.768,20.9A2.085,2.085,0,0,1,20.768,23.925Zm13.59,7.119H25.729a2.157,2.157,0,1,1,0-4.314h8.629a2.157,2.157,0,1,1,0,4.314Z" transform="translate(0 0)" fill="#26dfad"/>
    <g id="Group_14457" data-name="Group 14457" transform="translate(14.943 52.615)">
      <path id="Path_27917" data-name="Path 27917" d="M40.358,30.314a5.767,5.767,0,0,1-5.393-3.883A.753.753,0,0,0,34.749,26H15.55c0,.216,0,.431-.216.431a5.308,5.308,0,0,1-5.177,3.883,2.157,2.157,0,0,0,0,4.314h30.2a2.157,2.157,0,0,0,0-4.314Z" transform="translate(-8 -26)" fill="#ecb74b"/>
    </g>
  </g>
</svg>
