<svg xmlns="http://www.w3.org/2000/svg" width="66.989" height="57.778" viewBox="0 0 66.989 57.778">
  <g id="analytics" transform="translate(0 -35.199)">
    <g id="Group_14450" data-name="Group 14450" transform="translate(15.585 51.884)">
      <g id="Group_14449" data-name="Group 14449">
        <path id="Path_27912" data-name="Path 27912" d="M126.672,162.724a7.556,7.556,0,1,0,7.557,7.556A7.564,7.564,0,0,0,126.672,162.724Z" transform="translate(-119.116 -162.724)" fill="#ecb74b"/>
      </g>
    </g>
    <g id="Group_14452" data-name="Group 14452" transform="translate(0 35.199)">
      <g id="Group_14451" data-name="Group 14451" transform="translate(0 0)">
        <path id="Path_27913" data-name="Path 27913" d="M64.585,35.2H2.4A2.4,2.4,0,0,0,0,37.6V76.12a2.4,2.4,0,0,0,2.4,2.4H3.544L14.282,67.784a.735.735,0,0,0,.051-.989A11.461,11.461,0,1,1,18.4,69.9a.734.734,0,0,0-.824.147L9.093,78.523H64.585a2.406,2.406,0,0,0,2.4-2.4V37.6A2.407,2.407,0,0,0,64.585,35.2ZM41.635,69.268a1.962,1.962,0,1,1-3.924,0V61.7a1.962,1.962,0,0,1,3.924,0Zm6.148,0a1.962,1.962,0,1,1-3.924,0V48.614a1.962,1.962,0,0,1,3.924,0Zm6.25,0a1.962,1.962,0,1,1-3.924,0V53.846a1.962,1.962,0,0,1,3.924,0Zm6.254,0a1.962,1.962,0,1,1-3.924,0V59.079a1.962,1.962,0,0,1,3.924,0Z" transform="translate(0 -35.199)" fill="#26dfad"/>
      </g>
    </g>
    <g id="Group_14454" data-name="Group 14454" transform="translate(16.616 82.012)">
      <g id="Group_14453" data-name="Group 14453">
        <path id="Path_27914" data-name="Path 27914" d="M159.588,400.184l-.013-.006a39.633,39.633,0,0,0-9.448-2.731v-3.724a.734.734,0,0,0-.734-.734H138.362a.734.734,0,0,0-.734.734v3.729a39.624,39.624,0,0,0-9.4,2.717,2,2,0,0,0-1.109,2.517,1.962,1.962,0,0,0,2.61,1.109,35.674,35.674,0,0,1,14.147-2.913h.041a35.731,35.731,0,0,1,14.107,2.9l.025.011a1.962,1.962,0,1,0,1.536-3.611Z" transform="translate(-126.999 -392.989)" fill="#ecb74b"/>
      </g>
    </g>
    <g id="Group_14456" data-name="Group 14456" transform="translate(0.024 78.523)">
      <g id="Group_14455" data-name="Group 14455">
        <path id="Path_27915" data-name="Path 27915" d="M3.7,366.324.755,369.275a1.962,1.962,0,0,0,2.775,2.775l5.72-5.726Z" transform="translate(-0.18 -366.324)" fill="#ecb74b"/>
      </g>
    </g>
  </g>
</svg>
