<svg xmlns="http://www.w3.org/2000/svg" width="52.651" height="69.211" viewBox="0 0 52.651 69.211">
  <g id="app-development" transform="translate(-10.037 -2.5)">
    <path id="Path_9098" data-name="Path 9098" d="M46.113,57.436v1.741h-32.3v-46.4h32.3v13.28a3.163,3.163,0,0,1,1.352-.292h2.422V6.8a4.36,4.36,0,0,0-4.315-4.3H14.341a4.315,4.315,0,0,0-4.3,4.3v60.6a4.308,4.308,0,0,0,4.3,4.3H45.572a4.325,4.325,0,0,0,4.315-4.3V57.869H47.735a3.163,3.163,0,0,1-1.622-.433ZM27.21,6.555H32.7a1.081,1.081,0,0,1,0,2.163H27.21a1.081,1.081,0,1,1,0-2.163Zm6.326,60.376H26.377a1.081,1.081,0,1,1,0-2.163h7.159a1.081,1.081,0,1,1,0,2.163Z" fill="#26dfad"/>
    <path id="Path_9099" data-name="Path 9099" d="M34.275,28.287A1.081,1.081,0,0,0,35.8,28.28l4.519-4.562a1.081,1.081,0,0,0,0-1.522L35.8,17.635a1.081,1.081,0,0,0-1.537,1.522l3.765,3.8-3.765,3.8A1.081,1.081,0,0,0,34.275,28.287Z" transform="translate(2.358 1.461)" fill="#ecb74b"/>
    <path id="Path_9100" data-name="Path 9100" d="M22.667,17.627a1.079,1.079,0,0,0-1.529.007L16.619,22.2a1.081,1.081,0,0,0,0,1.522l4.519,4.562a1.081,1.081,0,1,0,1.537-1.522l-3.765-3.8,3.765-3.8a1.081,1.081,0,0,0-.007-1.529Z" transform="translate(0.618 1.46)" fill="#ecb74b"/>
    <path id="Path_9101" data-name="Path 9101" d="M30.335,14.879,23.987,30.852a1.081,1.081,0,0,0,2.01.8l6.348-15.973a1.081,1.081,0,1,0-2.01-.8Z" transform="translate(1.368 1.153)" fill="#ecb74b"/>
    <path id="Path_9102" data-name="Path 9102" d="M59.449,37.067,57.073,36.8a10.436,10.436,0,0,0-1.213-2.885V33.9l1.4-1.98a1.134,1.134,0,0,0-.123-1.458l-1.7-1.7a1.134,1.134,0,0,0-1.51-.084l-1.863,1.488a10.472,10.472,0,0,0-2.9-1.175l-.4-2.407a1.134,1.134,0,0,0-1.119-.946H45.227A1.134,1.134,0,0,0,44.1,26.647l-.269,2.384a10.738,10.738,0,0,0-2.885,1.213l-1.988-1.412a1.134,1.134,0,0,0-1.46.124l-1.695,1.7a1.134,1.134,0,0,0-.084,1.507l1.492,1.874a10.211,10.211,0,0,0-1.185,2.9l-2.4.4a1.134,1.134,0,0,0-.946,1.118v2.4A1.134,1.134,0,0,0,33.689,42l2.366.268a10.643,10.643,0,0,0,1.223,2.895v.01l-1.4,1.97A1.134,1.134,0,0,0,36,48.6l1.7,1.7a1.134,1.134,0,0,0,1.508.085l1.873-1.491a10.533,10.533,0,0,0,2.895,1.175l.4,2.407a1.134,1.134,0,0,0,1.119.946H47.91a1.134,1.134,0,0,0,1.127-1.007l.269-2.384a10.159,10.159,0,0,0,2.885-1.213L54.18,50.23a1.134,1.134,0,0,0,1.46-.124l1.695-1.7a1.134,1.134,0,0,0,.085-1.507l-1.483-1.865a10.655,10.655,0,0,0,1.175-2.914l2.4-.4a1.134,1.134,0,0,0,.946-1.118v-2.4a1.134,1.134,0,0,0-1.007-1.127ZM46.574,44.194a4.662,4.662,0,1,1,4.653-4.662A4.663,4.663,0,0,1,46.574,44.194Z" transform="translate(2.233 2.281)" fill="#ecb74b"/>
  </g>
</svg>
