<svg xmlns="http://www.w3.org/2000/svg" xmlns:xlink="http://www.w3.org/1999/xlink" width="1440" height="1447" viewBox="0 0 1440 1447">
  <defs>
    <clipPath id="clip-path">
      <rect id="Rectangle_1621" data-name="Rectangle 1621" width="1440" height="1447" transform="translate(0 -0.001)" fill="#e7eaef"/>
    </clipPath>
  </defs>
  <g id="Group_13191" data-name="Group 13191" transform="translate(0 0.001)" opacity="0.4" clip-path="url(#clip-path)">
    <g id="Group_13190" data-name="Group 13190" transform="translate(-524.008 -645.775)">
      <g id="Group_13188" data-name="Group 13188" transform="translate(1456.43)">
        <path id="Path_12506" data-name="Path 12506" d="M2206.712,169.471l-.522-.646c-11.883-14.732-31.117-14.695-42.962.084l-5.093,6.353c-11.845,14.78-31.08,14.817-42.962.085l-.522-.646c-11.884-14.733-31.117-14.695-42.964.084l-45.924,57.3c-11.988,14.957-31.456,14.995-43.481.082h0c-12.027-14.913-12.055-39.126-.067-54.084L2050.088,93.4c11.845-14.778,11.815-38.7-.067-53.435l-.521-.646c-11.882-14.733-31.117-14.7-42.963.082L1857.172,225.752c-11.989,14.957-31.457,14.995-43.482.082h0c-12.025-14.911-12.055-39.126-.066-54.083L1962.991-14.6c11.845-14.78,11.816-38.7-.066-53.437l-.521-.646c-11.882-14.733-31.117-14.7-42.962.082l-341.887,426.55c-11.989,14.957-11.959,39.172.066,54.083h0c12.025,14.913,12.055,39.127.066,54.084L1428.579,652.144c-11.988,14.958-11.959,39.172.066,54.085h0c12.025,14.911,31.492,14.875,43.481-.084l149.107-186.029c11.989-14.959,31.457-14.995,43.482-.084h0c12.025,14.911,12.054,39.126.066,54.083l-67.612,84.354c-11.989,14.958-11.959,39.172.066,54.083v0c12.025,14.911,31.493,14.875,43.482-.084l45.666-56.974c11.989-14.957,31.457-14.995,43.482-.084h0c12.025,14.913,31.493,14.877,43.482-.082l4.577-5.709c11.988-14.957,31.455-14.995,43.481-.082h0c12.025,14.911,31.493,14.875,43.482-.082l341.889-426.552C2218.622,208.129,2218.594,184.2,2206.712,169.471Z" transform="translate(-1344.501 269.181)" fill="#e7eaef"/>
        <path id="Path_12507" data-name="Path 12507" d="M1713.782,399.9h0c11.759,14.581,11.788,38.258.065,52.884l-89.483,111.642c-11.724,14.626-11.694,38.3.065,52.886h0c11.759,14.581,11.788,38.258.065,52.884l-18.773,23.422c-11.723,14.626-11.694,38.3.065,52.885h0c11.759,14.581,30.8,14.545,42.518-.081l301.748-376.472c11.723-14.626,11.694-38.3-.065-52.885h0c-11.759-14.581-11.788-38.26-.065-52.886l18.773-23.42c11.723-14.626,11.694-38.3-.065-52.884v0c-11.759-14.581-11.789-38.258-.065-52.884l89.483-111.642c11.723-14.626,11.694-38.3-.065-52.884h0c-11.759-14.581-30.794-14.545-42.518.081l-50.214,62.649c-11.723,14.626-30.758,14.663-42.517.081h0c-11.759-14.581-30.795-14.545-42.519.081l-65.471,81.684c-11.723,14.626-30.759,14.662-42.517.081h0c-11.759-14.581-11.788-38.258-.065-52.884l26.2-32.69c11.724-14.626,11.7-38.3-.063-52.886h0c-11.758-14.581-11.788-38.258-.065-52.884l53.4-66.622c11.723-14.626,11.694-38.3-.065-52.884h0c-11.759-14.583-30.794-14.545-42.519.081l-53.4,66.621c-11.723,14.626-30.758,14.662-42.517.081h0c-11.759-14.581-30.794-14.545-42.517.081L1368.867,247.6c-11.723,14.626-11.694,38.3.065,52.884h0c11.759,14.581,30.8,14.545,42.518-.081l53.4-66.621c11.724-14.626,30.76-14.662,42.518-.081h0c11.759,14.581,11.788,38.258.065,52.884l-53.4,66.622c-11.724,14.626-11.7,38.3.065,52.884h0c11.759,14.581,11.788,38.26.064,52.886l-26.2,32.69c-11.723,14.626-11.694,38.3.065,52.884h0c11.759,14.581,30.794,14.546,42.517-.081l65.471-81.684c11.724-14.626,30.76-14.662,42.518-.081h0c11.759,14.583,30.794,14.545,42.517-.081l50.215-62.648C1682.988,385.353,1702.023,385.315,1713.782,399.9Z" transform="translate(-1356.403 206.65)" fill="#e7eaef"/>
        <path id="Path_27900" data-name="Path 27900" d="M32.91.391C50.039-.378,63.3,16,62.532,36.973S47.253,75.571,30.124,76.34-.267,60.732.5,39.759,15.782,1.161,32.91.391Z" transform="translate(411.35 960.856) rotate(-10.908)" fill="#e7eaef"/>
        <path id="Path_27901" data-name="Path 27901" d="M40.6.989C61.191-.4,76.759,12.678,75.374,30.19s-19.2,32.832-39.789,34.217S-.573,52.719.813,35.206,20.012,2.374,40.6.989Z" transform="translate(0 822.255) rotate(-69.001)" fill="#e7eaef"/>
      </g>
      <g id="Group_13189" data-name="Group 13189" transform="translate(0 912.65)">
        <path id="Path_12508" data-name="Path 12508" d="M497.015,1011.346h0c11.759,14.581,11.788,38.26.065,52.886L407.6,1175.874c-11.723,14.626-11.694,38.3.065,52.884h0c11.759,14.582,11.788,38.26.065,52.886l-18.772,23.42c-11.724,14.626-11.694,38.3.065,52.886h0c11.759,14.581,30.794,14.546,42.517-.08L733.285,981.4c11.723-14.626,11.694-38.3-.065-52.885h0c-11.76-14.583-11.789-38.26-.065-52.886l18.772-23.42c11.723-14.626,11.694-38.3-.065-52.886h0c-11.759-14.581-11.788-38.258-.065-52.884l89.484-111.642c11.723-14.626,11.694-38.3-.065-52.886h0c-11.76-14.581-30.8-14.545-42.518.081l-50.214,62.649c-11.723,14.626-30.76,14.662-42.518.081h0c-11.759-14.581-30.794-14.545-42.517.081l-65.471,81.683c-11.723,14.626-30.76,14.662-42.518.081h0c-11.759-14.581-11.788-38.258-.065-52.884l26.2-32.691c11.723-14.626,11.694-38.3-.065-52.884h0c-11.759-14.583-11.788-38.26-.065-52.886l53.4-66.621c11.724-14.626,11.7-38.3-.065-52.886h0c-11.759-14.581-30.794-14.546-42.517.081l-53.4,66.622c-11.723,14.626-30.758,14.662-42.517.081h0c-11.759-14.583-30.794-14.547-42.518.079L152.1,859.045c-11.723,14.626-11.694,38.3.065,52.886h0c11.759,14.581,30.794,14.545,42.518-.081l53.4-66.622c11.723-14.626,30.758-14.662,42.517-.081h0c11.759,14.583,11.788,38.26.065,52.886l-53.4,66.621c-11.723,14.626-11.694,38.3.065,52.886h0c11.759,14.581,11.788,38.258.065,52.884l-26.2,32.691c-11.723,14.626-11.694,38.3.065,52.884h0c11.759,14.583,30.8,14.545,42.518-.081l65.471-81.683c11.723-14.626,30.758-14.662,42.517-.081h0c11.759,14.581,30.8,14.545,42.518-.081l50.214-62.649C466.219,996.8,485.256,996.765,497.015,1011.346Z" transform="translate(-143.327 -404.798)" fill="#e7eaef"/>
        <path id="Path_12509" data-name="Path 12509" d="M792.35,1453.24l-21.871,27.288c-11.989,14.957-11.959,39.172.066,54.084h0c12.025,14.911,31.493,14.875,43.481-.082l83.81-104.564c11.989-14.957,31.457-14.995,43.482-.084v0c12.025,14.911,12.055,39.126.066,54.083l-83.81,104.564c-11.988,14.957-11.959,39.172.067,54.084h0c12.025,14.911,31.492,14.875,43.481-.082l46.607-58.149c11.989-14.957,31.457-14.995,43.482-.082h0c12.025,14.911,12.055,39.126.066,54.083l-83.224,103.833c-11.989,14.957-11.959,39.172.066,54.084h0c12.025,14.913,31.493,14.875,43.482-.082l341.629-426.228c11.988-14.958,11.959-39.172-.067-54.083h0c-12.025-14.913-12.055-39.127-.066-54.084l83.225-103.833c11.988-14.957,11.958-39.172-.067-54.085h0c-12.025-14.911-31.493-14.875-43.481.082l-46.608,58.149c-11.988,14.957-31.456,14.995-43.481.082h0c-12.025-14.911-12.055-39.125-.066-54.083l83.809-104.565c11.989-14.957,11.959-39.172-.066-54.084h0c-12.025-14.911-31.493-14.875-43.482.082l-83.809,104.564c-11.989,14.957-31.457,14.995-43.482.082h0c-12.025-14.911-12.055-39.126-.066-54.083l21.872-27.289c11.988-14.958,11.958-39.172-.067-54.083h0c-12.025-14.913-31.493-14.875-43.481.082L792.218,1345.072c-11.989,14.959-11.959,39.173.066,54.084h0C804.309,1414.069,804.339,1438.283,792.35,1453.24Z" transform="translate(-19.691 -157.114)" fill="#e7eaef"/>
        <path id="Path_12510" data-name="Path 12510" d="M693.611,1612.182l31.328-39.087c11.989-14.958,31.457-14.995,43.482-.082h0c12.025,14.913,31.493,14.875,43.482-.082l341.888-426.552c11.845-14.778,11.816-38.7-.065-53.437l-.522-.646c-11.881-14.734-31.116-14.7-42.961.082l-31.588,39.411c-11.989,14.957-31.457,14.994-43.482.082h0c-12.025-14.913-12.055-39.127-.066-54.085l9.077-11.325c11.845-14.78,11.817-38.7-.065-53.437l-.522-.646c-11.881-14.735-11.91-38.658-.065-53.437h0c11.845-14.78,11.815-38.7-.066-53.437l-.521-.646c-11.881-14.733-31.116-14.7-42.961.081L965.728,947.68c-11.845,14.78-31.08,14.815-42.961.082l-.521-.646c-11.883-14.733-31.116-14.7-42.961.081L537.4,1373.749c-11.988,14.957-11.959,39.172.066,54.084h0c12.026,14.911,31.493,14.875,43.482-.082l34.258-42.742c11.7-14.6,30.7-14.635,42.44-.079l1.043,1.292c11.737,14.554,11.766,38.19.065,52.789h0c-11.989,14.957-11.959,39.172.066,54.083v0c12.025,14.911,12.055,39.126.066,54.083l-8.818,11c-11.988,14.957-11.959,39.172.066,54.083h0C662.156,1627.176,681.622,1627.139,693.611,1612.182Z" transform="translate(-66.308 -163.898)" fill="#e7eaef"/>
        <path id="Path_12511" data-name="Path 12511" d="M355.1,1356.631,187.57,1565.648c-11.989,14.958-11.959,39.172.066,54.083h0c12.026,14.913,31.493,14.875,43.482-.082l66.749-83.277c11.989-14.957,31.456-14.995,43.481-.083h0c12.025,14.912,12.054,39.127.066,54.084L247.528,1707.51c-11.989,14.957-11.959,39.172.066,54.083h0c12.025,14.913,31.493,14.875,43.482-.082l19.435-24.247c11.989-14.958,31.456-14.994,43.482-.083h0c12.025,14.912,31.493,14.875,43.481-.082l41.315-51.545c11.989-14.958,31.457-14.995,43.482-.082l1.054,1.306c11.443,14.192,11.472,37.234.062,51.468h0c-11.988,14.957-11.959,39.172.066,54.083h0c12.026,14.913,31.493,14.877,43.482-.082l433.279-540.572c11.7-14.595,11.669-38.224-.065-52.776l-1.054-1.306c-11.735-14.551-11.764-38.179-.065-52.775h0c11.7-14.6,11.67-38.224-.065-52.776l-1.054-1.306c-11.735-14.551-30.731-14.516-42.43.079l-42.365,52.856c-11.7,14.6-30.7,14.632-42.43.081l-1.054-1.306c-11.735-14.551-30.731-14.516-42.43.081l-19.961,24.9c-11.989,14.958-31.456,15-43.482.082h0c-12.025-14.911-12.055-39.125-.066-54.083l94.412-117.792c11.7-14.6,11.669-38.224-.065-52.776l-1.054-1.306c-11.735-14.552-30.731-14.516-42.43.081l-67.274,83.932c-11.988,14.958-31.456,14.995-43.481.082h0c-12.026-14.911-12.055-39.126-.067-54.083L831.8,761.893c11.7-14.6,11.67-38.224-.065-52.775l-1.054-1.307c-11.734-14.552-30.731-14.514-42.43.081L354.969,1248.462c-11.989,14.959-11.959,39.172.066,54.084h0C367.06,1317.459,367.09,1341.674,355.1,1356.631Z" transform="translate(-136.273 -260.898)" fill="#e7eaef"/>
        <path id="Path_27902" data-name="Path 27902" d="M39.747,1.5C58.8-.566,72.563,13.2,70.493,32.25S51.3,68.423,32.25,70.493-.566,58.8,1.5,39.747,20.7,3.574,39.747,1.5Z" transform="translate(659.293 643.966) rotate(-45)" fill="#e7eaef"/>
        <path id="Path_27903" data-name="Path 27903" d="M32.1.244c17.044-.51,30.448,16.147,29.939,37.2S47.3,75.99,30.257,76.5-.192,60.353.318,39.3,15.058.754,32.1.244Z" transform="translate(555.715 149.311) rotate(-7.128)" fill="#e7eaef"/>
        <path id="Path_12512" data-name="Path 12512" d="M1426.983,1820.882l-.521-.646c-11.88-14.736-11.909-38.66-.064-53.439l5.092-6.353c11.845-14.78,11.818-38.7-.062-53.44l-.522-.646c-11.88-14.737-11.909-38.662-.062-53.44l45.924-57.3c11.988-14.958,11.959-39.172-.066-54.083h0c-12.025-14.912-31.493-14.875-43.481.082l-67.872,84.68c-11.845,14.778-31.08,14.814-42.96.079l-.522-.646c-11.881-14.735-11.909-38.658-.064-53.438l149.365-186.353c11.989-14.958,11.959-39.172-.066-54.085h0c-12.026-14.911-31.493-14.875-43.482.084L1278.252,1518.3c-11.845,14.778-31.08,14.814-42.961.081l-.522-.646c-11.88-14.735-11.909-38.659-.064-53.438l341.887-426.55c11.989-14.957,31.457-14.993,43.482-.082h0c12.025,14.913,31.493,14.875,43.482-.082l149.107-186.031c11.988-14.957,31.456-14.995,43.481-.082h0c12.025,14.913,12.055,39.127.066,54.085L1707.1,1091.579c-11.989,14.957-11.959,39.172.066,54.083h0c12.025,14.912,31.493,14.875,43.481-.082l67.612-84.355c11.989-14.957,31.457-14.993,43.482-.082h0c12.025,14.913,12.055,39.127.066,54.084l-45.666,56.974c-11.989,14.959-11.959,39.173.066,54.084h0c12.025,14.913,12.055,39.127.066,54.084l-4.577,5.709c-11.988,14.958-11.959,39.172.066,54.085h0c12.025,14.911,12.054,39.125.066,54.084l-341.89,426.55C1458.1,1835.578,1438.865,1835.615,1426.983,1820.882Z" transform="translate(73.176 -190.266)" fill="#e7eaef"/>
        <path id="Path_27904" data-name="Path 27904" d="M32.776.367c17.113-.728,30.4,15.7,29.667,36.686S47.253,75.646,30.14,76.374-.256,60.678.472,39.689,15.663,1.095,32.776.367Z" transform="translate(1680.826 767.886) rotate(-10.295)" fill="#e7eaef"/>
      </g>
    </g>
  </g>
</svg>
