<svg xmlns="http://www.w3.org/2000/svg" width="40.802" height="65.215" viewBox="0 0 40.802 65.215">
  <g id="layout_1_" data-name="layout (1)" transform="translate(-12.015 -2.75)">
    <path id="Path_28023" data-name="Path 28023" d="M32.1,14.148v13.9a.979.979,0,0,1-.988.988H16.883a.979.979,0,0,1-.988-.988v-13.9a.987.987,0,0,1,.988-.988H31.112a.987.987,0,0,1,.988.988Z" transform="translate(1.232 3.305)" fill="#ecb74b"/>
    <path id="Path_28024" data-name="Path 28024" d="M32.44,16.434h8.872a.988.988,0,1,0,0-1.976H32.44a.988.988,0,0,0,0,1.976Z" transform="translate(6.171 3.717)" fill="#ecb74b"/>
    <path id="Path_28025" data-name="Path 28025" d="M32.44,20.414h8.872a.988.988,0,1,0,0-1.976H32.44a.988.988,0,0,0,0,1.976Z" transform="translate(6.171 4.98)" fill="#ecb74b"/>
    <path id="Path_28026" data-name="Path 28026" d="M32.44,24.394h8.872a.988.988,0,1,0,0-1.976H32.44a.988.988,0,0,0,0,1.976Z" transform="translate(6.171 6.244)" fill="#ecb74b"/>
    <path id="Path_28027" data-name="Path 28027" d="M16.878,30.407H46.252a.988.988,0,0,0,0-1.976H16.878a.988.988,0,1,0,0,1.976Z" transform="translate(1.23 8.153)" fill="#ecb74b"/>
    <path id="Path_28028" data-name="Path 28028" d="M41.857,33.978v7.035a.987.987,0,0,1-.988.988H33.833a1,1,0,0,1-.988-.988V33.978a.987.987,0,0,1,.988-.988h7.035A.979.979,0,0,1,41.857,33.978Z" transform="translate(6.613 9.6)" fill="#ecb74b"/>
    <path id="Path_28029" data-name="Path 28029" d="M24.893,33.978v7.035a.987.987,0,0,1-.988.988H16.883a.987.987,0,0,1-.988-.988V33.978a.979.979,0,0,1,.988-.988h7.022A.979.979,0,0,1,24.893,33.978Z" transform="translate(1.232 9.6)" fill="#ecb74b"/>
    <path id="Path_28030" data-name="Path 28030" d="M33.377,33.978v7.035a.987.987,0,0,1-.988.988H25.353a1,1,0,0,1-.988-.988V33.978a.987.987,0,0,1,.988-.988h7.035A.979.979,0,0,1,33.377,33.978Z" transform="translate(3.921 9.6)" fill="#ecb74b"/>
    <path id="Path_28031" data-name="Path 28031" d="M49.352,2.75H15.48a3.461,3.461,0,0,0-3.465,3.465V64.5a3.461,3.461,0,0,0,3.465,3.465H49.352A3.469,3.469,0,0,0,52.817,64.5V6.215A3.469,3.469,0,0,0,49.352,2.75ZM35.923,62.857H28.9a.988.988,0,0,1,0-1.976h7.022a.988.988,0,0,1,0,1.976Zm14.918-7.079H13.991V13.58h36.85Zm0-44.175H13.991V6.215A1.479,1.479,0,0,1,15.48,4.726H49.352a1.487,1.487,0,0,1,1.489,1.489Z" fill="#26dfad"/>
    <path id="Path_28032" data-name="Path 28032" d="M27.429,6.11H25.316a.988.988,0,1,0,0,1.976h2.113a.988.988,0,0,0,0-1.976Z" transform="translate(3.909 1.067)" fill="#ecb74b"/>
    <path id="Path_28033" data-name="Path 28033" d="M30.23,6.11h-.32a.988.988,0,0,0,0,1.976h.32a.988.988,0,0,0,0-1.976Z" transform="translate(5.367 1.067)" fill="#ecb74b"/>
  </g>
</svg>
