<svg xmlns="http://www.w3.org/2000/svg" width="65.183" height="65.154" viewBox="0 0 65.183 65.154">
  <g id="mobile" transform="translate(-1.987 -2)">
    <path id="Path_28037" data-name="Path 28037" d="M51.321,43.581a7.514,7.514,0,0,1-1.944,1.542l-12,6.657a7.536,7.536,0,0,1-7.308,0l-12.01-6.657a7.514,7.514,0,0,1-1.944-1.553,6.515,6.515,0,0,1-3.03,3.931A6.07,6.07,0,0,1,12,48V58.154a5.43,5.43,0,0,0,5.43,5.43H50.007a5.43,5.43,0,0,0,5.43-5.43V48a7.341,7.341,0,0,1-1.086-.521A6.385,6.385,0,0,1,51.321,43.581ZM38.062,58.154H29.374a1.086,1.086,0,0,1,0-2.172h8.687a1.086,1.086,0,0,1,0,2.172Z" transform="translate(0.86 3.571)" fill="#ecb74b"/>
    <path id="Path_28038" data-name="Path 28038" d="M16.344,21.807a7.753,7.753,0,0,1,1.716-1.347l12-6.646a7.6,7.6,0,0,1,7.319,0l12,6.646a7.515,7.515,0,0,1,1.77,1.357A6.515,6.515,0,0,1,54.4,17.007a6.07,6.07,0,0,1,1.086-.5V7.43A5.43,5.43,0,0,0,50.061,2H17.43A5.43,5.43,0,0,0,12,7.43V16.5a7.341,7.341,0,0,1,1.086.521A6.418,6.418,0,0,1,16.344,21.807ZM38.062,7.43h2.172a1.086,1.086,0,0,1,0,2.172H38.062a1.086,1.086,0,1,1,0-2.172ZM27.2,7.43h6.515a1.086,1.086,0,0,1,0,2.172H27.2a1.086,1.086,0,1,1,0-2.172Z" transform="translate(0.86 0)" fill="#ecb74b"/>
    <path id="Path_28039" data-name="Path 28039" d="M62.812,29.2a4.344,4.344,0,0,0-4.192,3.258H51.953v-5.43h2.172a1.086,1.086,0,0,0,.771-.315l1.4-1.39h0a4.246,4.246,0,0,0,2.172.619,4.344,4.344,0,0,0,0-8.687,4.235,4.235,0,0,0-2.172.6,4.278,4.278,0,0,0-1.553,5.918l-1.086,1.086H51.812a5.343,5.343,0,0,0-2.628-3.54l-12-6.646a5.364,5.364,0,0,0-5.212,0L20.027,21.319a5.343,5.343,0,0,0-2.682,3.54H15.477l-1.086-1.086a4.278,4.278,0,0,0-1.531-5.918,4.235,4.235,0,0,0-2.172-.6,4.344,4.344,0,1,0,0,8.687,4.246,4.246,0,0,0,2.172-.608h0l1.379,1.39a1.086,1.086,0,0,0,.793.3H17.2v5.43H10.536a4.344,4.344,0,1,0,0,2.172H17.2v4.344H15.032a1.086,1.086,0,0,0-.771.315l-1.4,1.379h0a4.344,4.344,0,1,0-2.172,8.079,4.235,4.235,0,0,0,2.172-.6,4.278,4.278,0,0,0,1.553-5.918L15.5,41.148h1.7a5.43,5.43,0,0,0,2.769,4.626l12,6.646a5.43,5.43,0,0,0,5.212,0l12-6.646a5.43,5.43,0,0,0,2.769-4.626h1.727l1.086,1.086A4.278,4.278,0,0,0,56.3,48.152a4.235,4.235,0,0,0,2.172.6,4.344,4.344,0,1,0-2.172-8.09h0L54.917,39.28a1.086,1.086,0,0,0-.793-.3H51.953V34.632H58.62a4.344,4.344,0,1,0,4.192-5.43ZM58.468,19.43a2.172,2.172,0,1,1-1.531,3.714h0a2.173,2.173,0,0,1,1.531-3.714Zm-46.249,3.7h0A2.172,2.172,0,1,1,12.86,21.6a2.172,2.172,0,0,1-.641,1.531ZM6.345,35.718a2.172,2.172,0,1,1,2.172-2.172A2.172,2.172,0,0,1,6.345,35.718Zm4.344,10.859a2.172,2.172,0,1,1,1.531-3.714h0a2.173,2.173,0,0,1-1.531,3.714ZM30.235,37.89a1.082,1.082,0,0,1-2.02.543l-4.5-5.972v5.43a1.086,1.086,0,0,1-2.172,0V29.2a1.082,1.082,0,0,1,2.02-.543l4.5,5.972V29.2a1.086,1.086,0,0,1,2.172,0Zm7.6-5.43a1.086,1.086,0,1,1,0,2.172H34.578V37.89a1.086,1.086,0,0,1-2.172,0V29.2a1.086,1.086,0,0,1,1.086-1.086h4.344a1.086,1.086,0,1,1,0,2.172H34.578v2.172Zm8.687-2.172H45.437v7.6a1.086,1.086,0,0,1-2.172,0v-7.6H42.18a1.086,1.086,0,0,1,0-2.172h4.344a1.086,1.086,0,0,1,0,2.172ZM56.937,42.874h0a2.172,2.172,0,1,1-.641,1.531,2.172,2.172,0,0,1,.641-1.531Zm5.875-7.156a2.172,2.172,0,1,1,2.172-2.172A2.172,2.172,0,0,1,62.812,35.718Z" transform="translate(0 1.031)" fill="#26dfad"/>
  </g>
</svg>
