<svg id="vector_2_" data-name="vector (2)" xmlns="http://www.w3.org/2000/svg" width="69.604" height="69.604" viewBox="0 0 69.604 69.604">
  <g id="Group_14459" data-name="Group 14459">
    <g id="Group_14458" data-name="Group 14458">
      <path id="Path_27918" data-name="Path 27918" d="M67.565,0H59.272a2.038,2.038,0,0,0-2.039,2.039V4.078H40.544a6.081,6.081,0,0,0-11.484,0H12.371V2.039A2.038,2.038,0,0,0,10.332,0H2.039A2.038,2.038,0,0,0,0,2.039V10.2a2.038,2.038,0,0,0,2.039,2.039h8.293A2.038,2.038,0,0,0,12.371,10.2V8.13h8.375a26.6,26.6,0,0,0-12.3,20.883,6.1,6.1,0,1,0,4.07.092A22.377,22.377,0,0,1,29.388,8.9a6.066,6.066,0,0,0,10.829,0A22.377,22.377,0,0,1,57.089,29.1a6.135,6.135,0,1,0,4.07-.092,26.552,26.552,0,0,0-12.3-20.856h8.375V10.2a2.038,2.038,0,0,0,2.039,2.039h8.293A2.038,2.038,0,0,0,69.6,10.2V2.039A2.038,2.038,0,0,0,67.565,0Z" fill="#ecb74b"/>
    </g>
  </g>
  <g id="Group_14461" data-name="Group 14461" transform="translate(20.84 61.311)">
    <g id="Group_14460" data-name="Group 14460">
      <path id="Path_27919" data-name="Path 27919" d="M181.13,456.763A8.293,8.293,0,0,0,173.374,451H161.139a8.293,8.293,0,0,0-7.756,5.763,2.009,2.009,0,0,0,1.983,2.529h23.78A2.009,2.009,0,0,0,181.13,456.763Z" transform="translate(-153.294 -451)" fill="#26dfad"/>
    </g>
  </g>
  <g id="Group_14463" data-name="Group 14463" transform="translate(16.449 17.871)">
    <g id="Group_14462" data-name="Group 14462">
      <path id="Path_27920" data-name="Path 27920" d="M157.363,155.415l-15.971-23.956V150.8a6.118,6.118,0,1,1-4.078,0V131.459l-15.971,23.956a2.039,2.039,0,0,0,.255,2.573,25.749,25.749,0,0,1,7.06,13.739,12.143,12.143,0,0,1,4.578-.907H145.47a12.146,12.146,0,0,1,4.578.907,25.748,25.748,0,0,1,7.06-13.739A2.039,2.039,0,0,0,157.363,155.415Z" transform="translate(-121 -131.459)" fill="#26dfad"/>
    </g>
  </g>
  <g id="Group_14465" data-name="Group 14465" transform="translate(32.763 40.92)">
    <g id="Group_14464" data-name="Group 14464">
      <path id="Path_27921" data-name="Path 27921" d="M243.039,301a2.039,2.039,0,1,0,2.039,2.039A2.041,2.041,0,0,0,243.039,301Z" transform="translate(-241 -301)" fill="#26dfad"/>
    </g>
  </g>
</svg>
