<svg xmlns="http://www.w3.org/2000/svg" width="96" height="63" viewBox="0 0 96 63">
  <g id="Group_14833" data-name="Group 14833" transform="translate(-160 -5334)">
    <rect id="Rectangle_1832" data-name="Rectangle 1832" width="96" height="63" rx="31.5" transform="translate(160 5334)" fill="#23c4c1"/>
    <g id="Group_14830" data-name="Group 14830" transform="translate(190.726 5350.884)">
      <path id="Path_28135" data-name="Path 28135" d="M11.959,49.833H7.308a1.985,1.985,0,0,1-1.993-1.993v-.664a5.121,5.121,0,0,1,1.557-3.758A5.122,5.122,0,0,1,10.63,41.86h1.329a1.347,1.347,0,0,0,1.329-1.329V37.874a1.347,1.347,0,0,0-1.329-1.329H10.63a10.359,10.359,0,0,0-4.121.841A10.53,10.53,0,0,0,.841,43.054,10.354,10.354,0,0,0,0,47.175V61.791a3.844,3.844,0,0,0,1.163,2.824,3.845,3.845,0,0,0,2.824,1.162h7.973a3.969,3.969,0,0,0,3.986-3.986V53.819a3.97,3.97,0,0,0-3.987-3.986Z" transform="translate(0 -36.545)" fill="#fff"/>
      <path id="Path_28136" data-name="Path 28136" d="M270.6,51a3.844,3.844,0,0,0-2.824-1.163h-4.651a1.985,1.985,0,0,1-1.993-1.993v-.664a5.316,5.316,0,0,1,5.315-5.315h1.328a1.348,1.348,0,0,0,1.329-1.329V37.874a1.348,1.348,0,0,0-1.329-1.329h-1.328a10.361,10.361,0,0,0-4.122.841,10.532,10.532,0,0,0-5.668,5.668,10.357,10.357,0,0,0-.841,4.121V61.791a3.969,3.969,0,0,0,3.986,3.986h7.973a3.969,3.969,0,0,0,3.986-3.986V53.819A3.844,3.844,0,0,0,270.6,51Z" transform="translate(-237.217 -36.545)" fill="#fff"/>
    </g>
  </g>
</svg>
