<svg id="client" xmlns="http://www.w3.org/2000/svg" width="44.904" height="44.904" viewBox="0 0 44.904 44.904">
  <g id="Group_14616" data-name="Group 14616" transform="translate(0 5.35)">
    <g id="Group_14615" data-name="Group 14615">
      <path id="Path_28108" data-name="Path 28108" d="M19.716,82.18c-.041-.083-7.284-7.2-7.35-7.262A2.594,2.594,0,0,0,8.5,74.761a2.536,2.536,0,0,0-.21,3.473l7.1,7.13a1.3,1.3,0,0,1,0,1.868,1.33,1.33,0,0,1-1.842,0L6.42,80.1a3.953,3.953,0,0,1-1.158-2.795V63.631a2.631,2.631,0,0,0-5.262,0V78.058a4.82,4.82,0,0,0,.763,2.6l5.559,9.288H6.311c.865,1.444,1.583,2.4,1.583,4.078v5.218a1.316,1.316,0,0,0,1.316,1.316H21.137v-14.8A5.2,5.2,0,0,0,19.716,82.18Z" transform="translate(0 -61)" fill="#26dfad"/>
    </g>
  </g>
  <g id="Group_14618" data-name="Group 14618" transform="translate(23.855 5.35)">
    <g id="Group_14617" data-name="Group 14617">
      <path id="Path_28109" data-name="Path 28109" d="M290.418,61a2.639,2.639,0,0,0-2.631,2.631V77.307a3.953,3.953,0,0,1-1.158,2.795l-7.13,7.13a1.33,1.33,0,0,1-1.842,0,1.3,1.3,0,0,1,0-1.868l7.1-7.13a2.536,2.536,0,0,0-.21-3.473,2.594,2.594,0,0,0-3.868.158c-.065.065-7.221,7.179-7.262,7.262A5.2,5.2,0,0,0,272,85.759v14.8h11.84a1.316,1.316,0,0,0,1.316-1.316V94.02c0-1.683.718-2.634,1.583-4.078h-.011l5.559-9.288a5.118,5.118,0,0,0,.763-2.684V63.631A2.639,2.639,0,0,0,290.418,61Z" transform="translate(-272 -61)" fill="#26dfad"/>
    </g>
  </g>
  <g id="Group_14620" data-name="Group 14620" transform="translate(33.064 10.612)">
    <g id="Group_14619" data-name="Group 14619">
      <path id="Path_28110" data-name="Path 28110" d="M378.973,121A1.973,1.973,0,0,0,377,122.973v3.345a5.245,5.245,0,0,1,1.48-.24,5.19,5.19,0,0,1,2.467.622v-3.727A1.973,1.973,0,0,0,378.973,121Z" transform="translate(-377 -121)" fill="#26dfad"/>
    </g>
  </g>
  <g id="Group_14622" data-name="Group 14622" transform="translate(7.893 10.612)">
    <g id="Group_14621" data-name="Group 14621">
      <path id="Path_28111" data-name="Path 28111" d="M91.973,121A1.973,1.973,0,0,0,90,122.973v3.717a5.265,5.265,0,0,1,2.467-.612,5.194,5.194,0,0,1,1.48.243v-3.348A1.973,1.973,0,0,0,91.973,121Z" transform="translate(-90 -121)" fill="#26dfad"/>
    </g>
  </g>
  <g id="Group_14624" data-name="Group 14624" transform="translate(17.102)">
    <g id="Group_14623" data-name="Group 14623">
      <path id="Path_28112" data-name="Path 28112" d="M200.35,0A5.413,5.413,0,0,0,195,5.35a5.351,5.351,0,0,0,10.7,0A5.413,5.413,0,0,0,200.35,0Z" transform="translate(-195)" fill="#ecb74b"/>
    </g>
  </g>
  <g id="Group_14626" data-name="Group 14626" transform="translate(14.09 13.243)">
    <g id="Group_14625" data-name="Group 14625">
      <path id="Path_28113" data-name="Path 28113" d="M169.012,151a10.667,10.667,0,0,0-8.363,4.042c.07.071.153.127.218.2,3.436,3.418,5.357,5.244,6.376,6.28h3.623c1.012-1.029,2.828-2.836,6.221-6.212.082-.1.192-.181.284-.275A10.667,10.667,0,0,0,169.012,151Z" transform="translate(-160.649 -151)" fill="#ecb74b"/>
    </g>
  </g>
</svg>
