<svg id="guarantee" xmlns="http://www.w3.org/2000/svg" width="47.399" height="47.965" viewBox="0 0 47.399 47.965">
  <path id="Path_28098" data-name="Path 28098" d="M85.409,19.317A19.318,19.318,0,1,0,66.091,38.634,19.339,19.339,0,0,0,85.409,19.317Zm-22.762,8.24-6.6-6.6,2-2,4.6,4.6L74.131,12.076l2,2Zm0,0" transform="translate(-42.391)" fill="#26dfad"/>
  <path id="Path_28099" data-name="Path 28099" d="M5.848,345.875,0,354.4l8.646-1.612,1.612,8.646,5.476-7.987a22.256,22.256,0,0,1-9.886-7.576Zm0,0" transform="translate(0 -313.473)" fill="#ecb74b"/>
  <path id="Path_28100" data-name="Path 28100" d="M347.9,345.875a22.255,22.255,0,0,1-9.886,7.576l5.476,7.987,1.612-8.646,8.646,1.612Zm0,0" transform="translate(-306.347 -313.473)" fill="#ecb74b"/>
</svg>
