<svg id="Page-1" xmlns="http://www.w3.org/2000/svg" width="45.672" height="44.904" viewBox="0 0 45.672 44.904">
  <g id="_007---AR-Phone-Camera" data-name="007---AR-Phone-Camera" transform="translate(0)">
    <path id="Shape" d="M46.195,25.256a2.406,2.406,0,0,1-1.042,1.981L24.721,41.326a2.4,2.4,0,0,1-2.726,0L1.563,27.237a2.406,2.406,0,0,1,0-3.961L8.924,18.2v1.941L2.477,24.6a.787.787,0,0,0-.353.658.8.8,0,0,0,.345.658L22.9,40a.8.8,0,0,0,.914,0L44.238,25.914a.789.789,0,0,0,0-1.315l-6.447-4.45V18.2l7.361,5.076A2.406,2.406,0,0,1,46.195,25.256Z" transform="translate(-0.523 -3.606)" fill="#ecb74b"/>
    <path id="Shape-2" data-name="Shape" d="M14.6,52.89a3.175,3.175,0,0,1-1.6-.446v1.248a1.6,1.6,0,0,0,1.6,1.6H37.056a1.6,1.6,0,0,0,1.6-1.6V52.444a3.175,3.175,0,0,1-1.6.446Z" transform="translate(-2.995 -10.391)" fill="#ecb74b"/>
    <path id="Shape-3" data-name="Shape" d="M22,25.13l4.811,3.007V22.812L22,19.805Z" transform="translate(-4.778 -3.924)" fill="#ecb74b"/>
    <path id="Shape-4" data-name="Shape" d="M23.507,1.6h7.938A1.6,1.6,0,0,0,32.614,1.1L33.643,0H21.309l1.028,1.1A1.609,1.609,0,0,0,23.507,1.6Z" transform="translate(-4.641)" fill="#ecb74b"/>
    <path id="Shape-5" data-name="Shape" d="M27.789,14.179l-4.9,3.064,4.9,3.064,4.9-3.064Z" transform="translate(-4.954 -2.809)" fill="#ecb74b"/>
    <path id="Shape-6" data-name="Shape" d="M30,28.137l4.811-3.007V19.805L30,22.812Z" transform="translate(-6.363 -3.924)" fill="#ecb74b"/>
    <path id="Shape-7" data-name="Shape" d="M37.056,0H34.193L32.14,2.2A3.227,3.227,0,0,1,29.8,3.207H21.861A3.24,3.24,0,0,1,19.519,2.2L17.466,0H14.6A1.609,1.609,0,0,0,13,1.6V25.916l12.83,8.853,12.83-8.853V1.6A1.609,1.609,0,0,0,37.056,0ZM28.909,7.738a.8.8,0,0,1,1.115-.208L31.563,8.6a.8.8,0,0,1,.2,1.115.789.789,0,0,1-.658.345.811.811,0,0,1-.457-.144l-1.54-1.058A.807.807,0,0,1,28.909,7.738ZM24.715,5.4l.658-.449a.8.8,0,0,1,.914,0l.658.449a.8.8,0,0,1-.457,1.467.786.786,0,0,1-.449-.144l-.208-.144-.208.144A.8.8,0,1,1,24.715,5.4ZM20.1,8.6l1.54-1.066a.8.8,0,1,1,.914,1.323l-1.54,1.058a.811.811,0,0,1-.457.144.789.789,0,0,1-.658-.345A.8.8,0,0,1,20.1,8.6Zm-2.165,3.44-1.54,1.058a.8.8,0,1,1-.914-1.315l1.54-1.066a.8.8,0,0,1,.914,1.323ZM33.047,21.65a.811.811,0,0,1-.377.682l-6.415,4.009a.811.811,0,0,1-.85,0L18.99,22.332a.811.811,0,0,1-.377-.682V14.434a.812.812,0,0,1,.377-.682L25.4,9.743a.811.811,0,0,1,.85,0l6.415,4.009a.811.811,0,0,1,.377.682Zm3.336-8.756a.8.8,0,0,1-1.115.2l-1.54-1.058a.8.8,0,1,1,.914-1.323l1.54,1.066A.8.8,0,0,1,36.382,12.894ZM28.107,39.043a4.028,4.028,0,0,1-4.555,0L13,31.77v7.521a1.609,1.609,0,0,0,1.6,1.6H37.056a1.609,1.609,0,0,0,1.6-1.6V31.762Z" transform="translate(-2.995)" fill="#26dfad"/>
  </g>
</svg>
