<svg id="rating" xmlns="http://www.w3.org/2000/svg" width="44.904" height="44.904" viewBox="0 0 44.904 44.904">
  <path id="Path_28089" data-name="Path 28089" d="M172.9,12.607l4.936,2.6-.943-5.5,4-3.894-5.521-.8L172.9,0l-2.468,5.011-5.521.8,4,3.894-.943,5.5Zm0,0" transform="translate(-150.451 0)" fill="#26dfad"/>
  <path id="Path_28090" data-name="Path 28090" d="M337.4,107.107l-2.468-5-2.468,5-5.518.8,3.993,3.893-.943,5.5,4.936-2.6,4.938,2.6-.946-5.5,4.252-3.893Zm0,0" transform="translate(-298.268 -93.151)" fill="#26dfad"/>
  <path id="Path_28091" data-name="Path 28091" d="M4.251,111.8l-.946,5.5,4.938-2.6,4.936,2.6-.943-5.5,3.993-3.893-5.518-.8-2.468-5-2.468,5-5.776.8Zm0,0" transform="translate(0 -93.15)" fill="#26dfad"/>
  <path id="Path_28092" data-name="Path 28092" d="M194.156,217.578a6.578,6.578,0,1,0-6.578,6.578A6.586,6.586,0,0,0,194.156,217.578Zm0,0" transform="translate(-165.126 -192.495)" fill="#ecb74b"/>
  <path id="Path_28093" data-name="Path 28093" d="M151,370.209v4.034h18.418v-4.034a9.209,9.209,0,0,0-18.418,0Zm0,0" transform="translate(-137.757 -329.339)" fill="#ecb74b"/>
  <path id="Path_28094" data-name="Path 28094" d="M392.383,427.578A6.586,6.586,0,0,0,385.8,421a6.486,6.486,0,0,0-1.941.326,11.675,11.675,0,0,1,.626,3.62v4.034h7.893Zm0,0" transform="translate(-350.197 -384.077)" fill="#ecb74b"/>
  <path id="Path_28095" data-name="Path 28095" d="M356.524,306.262a5.262,5.262,0,0,0-10.524,0c0,.167.034.326.049.489a11.837,11.837,0,0,1,3.016,4.277,5.206,5.206,0,0,0,2.2.5A5.267,5.267,0,0,0,356.524,306.262Zm0,0" transform="translate(-315.655 -274.601)" fill="#ecb74b"/>
  <path id="Path_28096" data-name="Path 28096" d="M56.476,306.751c.015-.163.049-.322.049-.489a5.262,5.262,0,1,0-5.262,5.262,5.212,5.212,0,0,0,2.2-.5A11.835,11.835,0,0,1,56.476,306.751Zm0,0" transform="translate(-41.966 -274.601)" fill="#ecb74b"/>
  <path id="Path_28097" data-name="Path 28097" d="M31,427.578v1.4h7.893v-4.034a11.675,11.675,0,0,1,.626-3.62A6.487,6.487,0,0,0,37.578,421,6.586,6.586,0,0,0,31,427.578Zm0,0" transform="translate(-28.281 -384.077)" fill="#ecb74b"/>
</svg>
