<svg id="transparency" xmlns="http://www.w3.org/2000/svg" width="44.904" height="44.904" viewBox="0 0 44.904 44.904">
  <path id="Path_28114" data-name="Path 28114" d="M107.316,5.438h9.647a1.316,1.316,0,0,0,1.316-1.316V1.754A1.754,1.754,0,0,0,116.524,0h-8.77A1.754,1.754,0,0,0,106,1.754V4.122A1.316,1.316,0,0,0,107.316,5.438Z" transform="translate(-96.703)" fill="#26dfad"/>
  <path id="Path_28115" data-name="Path 28115" d="M417.785,414.066l-3.721-3.721a2.631,2.631,0,0,0-3.721,3.721l3.721,3.721a2.631,2.631,0,0,0,3.721-3.721Z" transform="translate(-373.651 -373.653)" fill="#ecb74b"/>
  <path id="Path_28116" data-name="Path 28116" d="M222.764,213.993a8.77,8.77,0,1,0-3.569,7.062l2.048,2.048a5.3,5.3,0,0,1,1.86-1.861l-2.048-2.048A8.731,8.731,0,0,0,222.764,213.993Zm-9.08,3.411a1.315,1.315,0,0,1-1.86,0l-2.481-2.481a1.316,1.316,0,1,1,1.86-1.86l1.55,1.55,4.031-4.031a1.316,1.316,0,1,1,1.86,1.86Z" transform="translate(-187.224 -187.224)" fill="#ecb74b"/>
  <path id="Path_28117" data-name="Path 28117" d="M25.59,67.3a1.308,1.308,0,0,1-1.3,1.532H6.578a1.316,1.316,0,0,1,0-2.631H21.763a11.466,11.466,0,0,1-3.475-2.631H6.578a1.316,1.316,0,1,1,0-2.631h9.936a11.313,11.313,0,0,1-.9-2.631H6.578a1.316,1.316,0,1,1,0-2.631h8.794a11.366,11.366,0,0,1,.374-2.631H6.578a1.316,1.316,0,1,1,0-2.631H16.81a11.473,11.473,0,0,1,2.021-2.631H6.578a1.316,1.316,0,1,1,0-2.631H23.134a11.406,11.406,0,0,1,7.738.17V35.947A3.951,3.951,0,0,0,26.925,32H24.206v1.316a3.951,3.951,0,0,1-3.947,3.947H10.612a3.951,3.951,0,0,1-3.947-3.947V32H3.947A3.951,3.951,0,0,0,0,35.947v34.2A3.951,3.951,0,0,0,3.947,74.1H26.925a3.951,3.951,0,0,0,3.947-3.947V66.6a11.343,11.343,0,0,1-4.1.764A11.463,11.463,0,0,1,25.59,67.3ZM6.578,39.893H24.294a1.316,1.316,0,1,1,0,2.631H6.578a1.316,1.316,0,1,1,0-2.631Z" transform="translate(0 -29.194)" fill="#26dfad"/>
</svg>
