<svg id="web-traffic_1_" data-name="web-traffic (1)" xmlns="http://www.w3.org/2000/svg" width="47.965" height="47.965" viewBox="0 0 47.965 47.965">
  <path id="Path_28101" data-name="Path 28101" d="M0,11.335H47.965V0H0ZM36.629,4.309h2.81V7.12h-2.81Zm-5.621,0h2.81V7.12h-2.81Zm-22.484,0H28.2V7.12H8.525Z" fill="#ecb74b"/>
  <path id="Path_28102" data-name="Path 28102" d="M271,335.645h2.81v-8.968L271,325.272Z" transform="translate(-245.612 -294.8)" fill="#26dfad"/>
  <path id="Path_28103" data-name="Path 28103" d="M211,308.456h2.81V296.677L211,295.272Z" transform="translate(-191.233 -267.611)" fill="#26dfad"/>
  <path id="Path_28104" data-name="Path 28104" d="M151,313.647h2.81V301L151,303.108Z" transform="translate(-136.854 -272.802)" fill="#26dfad"/>
  <path id="Path_28105" data-name="Path 28105" d="M331,319.276h2.81V307.211l-2.81,2.81Z" transform="translate(-299.992 -278.431)" fill="#26dfad"/>
  <path id="Path_28106" data-name="Path 28106" d="M91,354.431h2.81V346L91,348.108Z" transform="translate(-82.475 -313.586)" fill="#26dfad"/>
  <path id="Path_28107" data-name="Path 28107" d="M0,184.819H47.965V151H0ZM5.715,169.97l12.5-9.374,11.113,5.556,8.127-8.127H35.224v-2.81H42.25v7.026H39.44v-2.229l-2.81,2.81V180.51H5.715Z" transform="translate(0 -136.854)" fill="#26dfad"/>
</svg>
