<svg id="Budget_1_" xmlns="http://www.w3.org/2000/svg" width="31.085" height="31.085" viewBox="0 0 31.085 31.085">
  <path id="Path_28132" data-name="Path 28132" d="M8.2,0a8.2,8.2,0,1,0,8.2,8.2A8.205,8.205,0,0,0,8.2,0Zm.911,12.582v1.078a.911.911,0,0,1-1.821,0V12.573a2.725,2.725,0,0,1-1.274-.915.911.911,0,1,1,1.457-1.094.9.9,0,0,0,.728.365.911.911,0,0,0,0-1.821,2.725,2.725,0,0,1-.911-5.3V2.732a.911.911,0,1,1,1.821,0V3.82a2.725,2.725,0,0,1,1.274.915A.911.911,0,0,1,8.925,5.829a.943.943,0,0,0-1.639.546.911.911,0,0,0,.911.911,2.725,2.725,0,0,1,.911,5.3Z" fill="#ecb74b"/>
  <g id="Group_14663" data-name="Group 14663" transform="translate(9.107 3.643)">
    <path id="Path_28133" data-name="Path 28133" d="M171.068,60H157.983a10.151,10.151,0,0,1,1.067,3.643H167.3a.91.91,0,0,1,.911.911v7.286a.91.91,0,0,1-.911.911H154.825A9.729,9.729,0,0,1,150,74.515V86.532a.91.91,0,0,0,.911.911h20.157a.91.91,0,0,0,.911-.911V60.911A.91.91,0,0,0,171.068,60Zm-11.05,14.571h1.821a.911.911,0,1,1,0,1.821h-1.821a.911.911,0,0,1,0-1.821Zm0,3.643h1.821a.911.911,0,1,1,0,1.821h-1.821a.911.911,0,0,1,0-1.821Zm-3.643,5.464h-1.821a.911.911,0,0,1,0-1.821h1.821a.911.911,0,0,1,0,1.821Zm0-3.643h-1.821a.911.911,0,1,1,0-1.821h1.821a.911.911,0,0,1,0,1.821Zm0-3.643h-1.821a.911.911,0,1,1,0-1.821h1.821a.911.911,0,0,1,0,1.821ZM167.3,83.678h-7.286a.911.911,0,0,1,0-1.821H167.3a.911.911,0,0,1,0,1.821Zm0-3.643h-1.821a.911.911,0,0,1,0-1.821H167.3a.911.911,0,1,1,0,1.821Zm0-3.643h-1.821a.911.911,0,0,1,0-1.821H167.3a.911.911,0,1,1,0,1.821Z" transform="translate(-150 -60)" fill="#26dfad"/>
    <path id="Path_28134" data-name="Path 28134" d="M271.527,155.464V150h-7.362a9.963,9.963,0,0,1-2.235,5.464Z" transform="translate(-255.134 -144.536)" fill="#26dfad"/>
  </g>
</svg>
