<svg xmlns="http://www.w3.org/2000/svg" width="72.367" height="72.367" viewBox="0 0 72.367 72.367">
  <g id="coding_3_" data-name="coding (3)" transform="translate(-3 -3)">
    <path id="Path_28436" data-name="Path 28436" d="M19.122,23A2.121,2.121,0,0,0,17.8,26.781l2.261,1.809A35.416,35.416,0,0,1,19.515,23Z" transform="translate(3.467 4.954)" fill="#26dfad"/>
    <path id="Path_28437" data-name="Path 28437" d="M3,59.426v4.991h7.486V47.206A13.749,13.749,0,0,0,3,59.426Z" transform="translate(0 10.95)" fill="#26dfad"/>
    <path id="Path_28438" data-name="Path 28438" d="M18.17,10.818a5.646,5.646,0,0,1,.125,4.513,3.21,3.21,0,0,0,.109,2.62L20.481,22.1a1.2,1.2,0,0,1,.212-.183l8.343-5.562a12.663,12.663,0,0,1,7.042-2.13,10.25,10.25,0,0,0,6.377-2.237l3.1-2.482a1.247,1.247,0,0,1,1.817.282l2.9,4.343a13.686,13.686,0,0,1,2.181,5.826l1.086-2.983A10.417,10.417,0,0,0,43.744,3H33.153A39.756,39.756,0,0,0,14.422,7.683l.374.125A5.647,5.647,0,0,1,18.17,10.818Z" transform="translate(2.829 0)" fill="#26dfad"/>
    <path id="Path_28439" data-name="Path 28439" d="M28.743,27.991a1.248,1.248,0,0,0,1.248-1.248V23H25v3.743a1.248,1.248,0,0,0,1.248,1.248Z" transform="translate(5.45 4.954)" fill="#26dfad"/>
    <path id="Path_28440" data-name="Path 28440" d="M38.743,27.991a1.248,1.248,0,0,0,1.248-1.248V23H35v3.743a1.248,1.248,0,0,0,1.248,1.248Z" transform="translate(7.927 4.954)" fill="#26dfad"/>
    <path id="Path_28441" data-name="Path 28441" d="M48.45,19.9a11.189,11.189,0,0,0-1.885-6.229l-2.141-3.212-2.038,1.632a12.748,12.748,0,0,1-7.937,2.784,10.174,10.174,0,0,0-5.661,1.713L21,21.783v1.828H32.229a1.248,1.248,0,0,1,1.248,1.248v1.248h2.5V24.858a1.248,1.248,0,0,1,1.248-1.248H48.45Z" transform="translate(4.459 1.848)" fill="#26dfad"/>
    <path id="Path_28442" data-name="Path 28442" d="M21.015,23a32.69,32.69,0,0,0,4.63,16.22H43.8A32.69,32.69,0,0,0,48.425,23H45.95v3.743a3.743,3.743,0,0,1-3.743,3.743h-2.5a3.743,3.743,0,0,1-3.743-3.743V25.5h-2.5v1.248a3.743,3.743,0,0,1-3.743,3.743h-2.5a3.743,3.743,0,0,1-3.743-3.743V23Z" transform="translate(4.462 4.954)" fill="#26dfad"/>
    <path id="Path_28443" data-name="Path 28443" d="M55,47.206V64.417h7.486V59.426A13.75,13.75,0,0,0,55,47.206Z" transform="translate(12.881 10.95)" fill="#26dfad"/>
    <path id="Path_28444" data-name="Path 28444" d="M59.661,38H14.743A3.743,3.743,0,0,0,11,41.743V66.7H63.4V41.743A3.743,3.743,0,0,0,59.661,38ZM39.947,39.747l2,1.5-7.486,9.982-2-1.5ZM30.6,49.595,28.834,51.36,23.843,46.37a1.248,1.248,0,0,1,0-1.766l4.991-4.991L30.6,41.379l-4.11,4.107Zm6.6,13.359a4.991,4.991,0,1,1,4.991-4.991A4.991,4.991,0,0,1,37.2,62.954ZM50.561,46.368,45.57,51.359,43.8,49.594l4.109-4.107L43.8,41.378l1.766-1.766L50.561,44.6a1.248,1.248,0,0,1,0,1.766Z" transform="translate(1.982 8.67)" fill="#ecb74b"/>
    <path id="Path_28445" data-name="Path 28445" d="M32.5,52a2.5,2.5,0,1,0,2.5,2.5A2.5,2.5,0,0,0,32.5,52Z" transform="translate(6.688 12.138)" fill="#ecb74b"/>
    <path id="Path_28446" data-name="Path 28446" d="M45.091,23a35.126,35.126,0,0,1-.543,5.59l2.262-1.809A2.121,2.121,0,0,0,45.486,23Z" transform="translate(10.292 4.954)" fill="#26dfad"/>
  </g>
</svg>
