<svg id="exchange_1_" data-name="exchange (1)" xmlns="http://www.w3.org/2000/svg" width="65.691" height="65.691" viewBox="0 0 65.691 65.691">
  <path id="Path_28458" data-name="Path 28458" d="M0,0H27.072V7.827H0ZM0,0" fill="#26dfad"/>
  <path id="Path_28459" data-name="Path 28459" d="M0,91H27.072v19.246H0Zm0,0" transform="translate(0 -79.324)" fill="#26dfad"/>
  <path id="Path_28460" data-name="Path 28460" d="M0,271H27.072v7.7H0Zm0,0" transform="translate(0 -236.23)" fill="#26dfad"/>
  <path id="Path_28461" data-name="Path 28461" d="M301,181h27.072v7.7H301Zm0,0" transform="translate(-262.381 -157.777)" fill="#ecb74b"/>
  <path id="Path_28462" data-name="Path 28462" d="M301,271h27.072v19.246H301Zm0,0" transform="translate(-262.381 -236.23)" fill="#ecb74b"/>
  <path id="Path_28463" data-name="Path 28463" d="M301,451h27.072v7.827H301Zm0,0" transform="translate(-262.381 -393.135)" fill="#ecb74b"/>
  <path id="Path_28464" data-name="Path 28464" d="M30,361v3.849A11.657,11.657,0,0,0,41.676,376.4h3.849v3.977l11.547-7.827-11.547-7.7V368.7h-5.9a5.774,5.774,0,0,1-5.774-5.774V361Zm0,0" transform="translate(-26.151 -314.682)" fill="#26dfad"/>
  <path id="Path_28465" data-name="Path 28465" d="M297.944,19.374V15.525A11.547,11.547,0,0,0,286.4,3.977h-3.849V0L271,7.827l11.547,7.7V11.676h5.774a5.774,5.774,0,0,1,5.774,5.774v1.925Zm0,0" transform="translate(-236.23)" fill="#ecb74b"/>
</svg>
