<svg xmlns="http://www.w3.org/2000/svg" width="60.116" height="60.86" viewBox="0 0 60.116 60.86">
  <g id="maintenance_setting" data-name="maintenance setting" transform="translate(-4.285 -4)">
    <path id="Path_28468" data-name="Path 28468" d="M64.04,25.1,57.224,13.326c-.685-1.2-1.521-.73-5.964.091a26.625,26.625,0,0,0-7.273-4.184C42.663,5.415,42.557,4,41.081,4h-13.6c-1.415,0-1.521,1.035-2.906,5.234A26.625,26.625,0,0,0,17.3,13.418c-4.29-.806-5.264-1.324-5.964-.091L4.521,25.1c-.669,1.187.107,1.674,3.043,5.127a26.352,26.352,0,0,0,0,8.4C4.749,41.9,3.79,42.523,4.521,43.755l6.816,11.776c.685,1.2,1.613.73,5.964-.091a26.626,26.626,0,0,0,7.273,4.184l1.521,4.214a1.521,1.521,0,0,0,1.521,1.019h13.6c1.415,0,1.521-1.035,2.906-5.234A26.625,26.625,0,0,0,51.4,55.44c4.29.806,5.264,1.324,5.964.091l6.816-11.776c.669-1.187-.106-1.674-3.043-5.127a26.352,26.352,0,0,0,0-8.4c2.647-3.271,3.575-3.895,2.906-5.127ZM54.013,35.753A19.779,19.779,0,0,1,19.553,47.6c-6.177-6.177-7.181-18-.289-26.032,13.008-14.636,36.013-4.214,34.8,14.18Z" transform="translate(0)" fill="#26dfad"/>
    <path id="Path_28469" data-name="Path 28469" d="M33.382,16.831A1.521,1.521,0,0,0,31.207,18.2v8.794l-3.043,2.039-3.043-2.039V18.2a1.521,1.521,0,0,0-2.176-1.369,12.172,12.172,0,0,0-.867,21.513V43.4a16.645,16.645,0,0,0,12.172,0V38.344a12.172,12.172,0,0,0-.867-21.513Z" transform="translate(6.116 6.613)" fill="#ecb74b"/>
  </g>
</svg>
