<svg xmlns="http://www.w3.org/2000/svg" width="42.717" height="72.652" viewBox="0 0 42.717 72.652">
  <g id="mobile-app" transform="translate(-15.479 -2.5)">
    <path id="Path_28447" data-name="Path 28447" d="M52.52,2.5H21.155a5.678,5.678,0,0,0-5.676,5.676v61.3a5.678,5.678,0,0,0,5.676,5.676H52.52A5.678,5.678,0,0,0,58.2,69.476V8.176A5.678,5.678,0,0,0,52.52,2.5ZM37.2,7.495h3.86a1.135,1.135,0,0,1,0,2.27H37.2a1.135,1.135,0,0,1,0-2.27Zm-4.575,0h.4a1.135,1.135,0,0,1,0,2.27h-.4a1.135,1.135,0,1,1,0-2.27ZM38.773,70.18H34.9a1.135,1.135,0,1,1,0-2.27h3.871a1.135,1.135,0,1,1,0,2.27Zm15.944-7.265H18.959V14.737H54.717Z" fill="#26dfad"/>
    <path id="Path_28448" data-name="Path 28448" d="M32.313,53.764h4.328a1.475,1.475,0,0,0,1.425-1.521V47.6a1.475,1.475,0,0,0-1.425-1.521H32.313A1.475,1.475,0,0,0,30.888,47.6v4.643A1.475,1.475,0,0,0,32.313,53.764Z" transform="translate(2.361 6.677)" fill="#ecb74b"/>
    <path id="Path_28449" data-name="Path 28449" d="M22.716,44h4.328a1.486,1.486,0,0,0,1.425-1.532V37.834a1.475,1.475,0,0,0-1.425-1.521H22.716a1.484,1.484,0,0,0-1.435,1.521v4.632A1.494,1.494,0,0,0,22.716,44Z" transform="translate(0.889 5.181)" fill="#ecb74b"/>
    <path id="Path_28450" data-name="Path 28450" d="M41.911,44h4.328a1.494,1.494,0,0,0,1.435-1.532V37.834a1.484,1.484,0,0,0-1.435-1.521H41.911a1.475,1.475,0,0,0-1.425,1.521v4.632A1.486,1.486,0,0,0,41.911,44Z" transform="translate(3.831 5.181)" fill="#ecb74b"/>
    <path id="Path_28451" data-name="Path 28451" d="M41.911,53.764h4.328a1.484,1.484,0,0,0,1.435-1.521V47.6a1.484,1.484,0,0,0-1.435-1.521H41.911A1.475,1.475,0,0,0,40.486,47.6v4.643A1.475,1.475,0,0,0,41.911,53.764Z" transform="translate(3.831 6.677)" fill="#ecb74b"/>
    <path id="Path_28452" data-name="Path 28452" d="M22.716,53.764h4.328a1.475,1.475,0,0,0,1.425-1.521V47.6a1.475,1.475,0,0,0-1.425-1.521H22.716A1.484,1.484,0,0,0,21.281,47.6v4.643a1.484,1.484,0,0,0,1.435,1.521Z" transform="translate(0.889 6.677)" fill="#ecb74b"/>
    <path id="Path_28453" data-name="Path 28453" d="M32.313,44h4.328a1.486,1.486,0,0,0,1.425-1.532V37.834a1.475,1.475,0,0,0-1.425-1.521H32.313a1.475,1.475,0,0,0-1.425,1.521v4.632A1.486,1.486,0,0,0,32.313,44Z" transform="translate(2.361 5.181)" fill="#ecb74b"/>
  </g>
</svg>
