<svg xmlns="http://www.w3.org/2000/svg" xmlns:xlink="http://www.w3.org/1999/xlink" width="1440" height="3002" viewBox="0 0 1440 3002">
  <defs>
    <clipPath id="clip-path">
      <rect id="Rectangle_1778" data-name="Rectangle 1778" width="1440" height="3002" transform="translate(0 0)" fill="#e7eaef"/>
    </clipPath>
  </defs>
  <g id="Group_14784" data-name="Group 14784" opacity="0.28" clip-path="url(#clip-path)">
    <g id="Group_14783" data-name="Group 14783" transform="translate(-524.008 -577.835)">
      <g id="Group_14781" data-name="Group 14781" transform="translate(1456.43)">
        <path id="Path_28316" data-name="Path 28316" d="M2206.712,143.255l-.522-.578c-11.883-13.182-31.117-13.149-42.962.075l-5.093,5.684c-11.845,13.225-31.08,13.258-42.962.076l-.522-.578c-11.884-13.183-31.117-13.149-42.964.075l-45.924,51.269c-11.988,13.384-31.456,13.417-43.481.073h0c-12.027-13.344-12.055-35.009-.067-48.394l67.873-75.77c11.845-13.224,11.815-34.631-.067-47.813l-.521-.578c-11.882-13.183-31.117-13.15-42.963.073L1857.172,193.615c-11.989,13.384-31.457,13.417-43.482.073h0c-12.025-13.342-12.055-35.009-.066-48.393L1962.991-21.453c11.845-13.225,11.816-34.631-.066-47.815l-.521-.578c-11.882-13.183-31.117-13.15-42.962.073L1577.555,311.9c-11.989,13.384-11.959,35.051.066,48.393h0c12.025,13.344,12.055,35.011.066,48.394L1428.579,575.148c-11.988,13.384-11.959,35.051.066,48.395h0c12.025,13.342,31.492,13.31,43.481-.075L1621.235,457.01c11.989-13.385,31.457-13.417,43.482-.075h0c12.025,13.342,12.054,35.009.066,48.393l-67.612,75.48c-11.989,13.384-11.959,35.051.066,48.393h0c12.025,13.342,31.493,13.31,43.482-.075l45.666-50.98c11.989-13.384,31.457-13.417,43.482-.075h0c12.025,13.344,31.493,13.312,43.482-.073l4.577-5.108c11.988-13.384,31.455-13.417,43.481-.074h0c12.025,13.342,31.493,13.31,43.482-.073L2206.777,191.07C2218.622,177.846,2218.594,156.438,2206.712,143.255Z" transform="translate(-1344.501 249.247)" fill="#e7eaef"/>
        <path id="Path_28317" data-name="Path 28317" d="M1713.782,336.085h0c11.759,13.047,11.788,34.233.065,47.321l-89.483,99.9c-11.724,13.087-11.694,34.273.065,47.322h0c11.759,13.047,11.788,34.233.065,47.321L1605.721,598.9c-11.723,13.087-11.694,34.273.065,47.321h0c11.759,13.047,30.8,13.015,42.518-.072l301.748-336.864c11.723-13.087,11.694-34.274-.065-47.321h0c-11.759-13.047-11.788-34.235-.065-47.322l18.773-20.956c11.723-13.087,11.694-34.273-.065-47.321h0c-11.759-13.047-11.789-34.233-.065-47.321l89.483-99.9c11.723-13.087,11.694-34.273-.065-47.321h0c-11.759-13.047-30.794-13.015-42.518.072L1965.252,7.956c-11.723,13.087-30.758,13.121-42.517.072h0c-11.759-13.047-30.795-13.015-42.519.072l-65.471,73.09c-11.723,13.087-30.759,13.119-42.517.072h0c-11.759-13.047-11.788-34.233-.065-47.321l26.2-29.25c11.724-13.087,11.7-34.275-.063-47.322h0c-11.758-13.047-11.788-34.233-.065-47.321l53.4-59.613c11.723-13.087,11.694-34.273-.065-47.321h0c-11.759-13.049-30.794-13.015-42.519.072l-53.4,59.612c-11.723,13.087-30.758,13.119-42.517.072h0c-11.759-13.047-30.794-13.015-42.517.072l-301.75,336.864c-11.723,13.087-11.694,34.273.065,47.321h0c11.759,13.047,30.8,13.015,42.518-.072l53.4-59.612c11.724-13.087,30.76-13.119,42.518-.072h0c11.759,13.047,11.788,34.233.065,47.321l-53.4,59.613c-11.724,13.087-11.7,34.273.065,47.321h0c11.759,13.047,11.788,34.235.064,47.322l-26.2,29.25c-11.723,13.087-11.694,34.273.065,47.321h0c11.759,13.047,30.794,13.015,42.517-.072l65.471-73.091c11.724-13.087,30.76-13.119,42.518-.072h0c11.759,13.049,30.794,13.015,42.517-.072l50.215-56.057C1682.988,323.07,1702.023,323.036,1713.782,336.085Z" transform="translate(-1356.403 206.65)" fill="#e7eaef"/>
        <path id="Path_28318" data-name="Path 28318" d="M32.794.995c17.049-.356,30.582,14.62,30.225,33.45S48.552,68.829,31.5,69.185.922,54.566,1.278,35.736,15.745,1.351,32.794.995Z" transform="translate(411.35 859.767) rotate(-10.908)" fill="#e7eaef"/>
        <path id="Path_28319" data-name="Path 28319" d="M36.913,2.4c18.653-.642,33.253,12.8,32.612,30.03S53.242,64.147,34.589,64.789,1.335,51.986,1.977,34.759,18.26,3.047,36.913,2.4Z" transform="translate(0 735.748) rotate(-69.001)" fill="#e7eaef"/>
      </g>
      <g id="Group_14782" data-name="Group 14782" transform="translate(214 1259.633)">
        <path id="Path_28320" data-name="Path 28320" d="M497.015,947.533h0c11.759,13.047,11.788,34.235.065,47.322l-89.484,99.9c-11.723,13.087-11.694,34.273.065,47.32h0c11.759,13.047,11.788,34.235.065,47.322l-18.772,20.956c-11.724,13.087-11.694,34.273.065,47.322h0c11.759,13.047,30.794,13.015,42.517-.072l301.75-336.865c11.723-13.087,11.694-34.274-.065-47.321h0c-11.76-13.048-11.789-34.235-.065-47.322l18.772-20.956c11.723-13.087,11.694-34.275-.065-47.322h0c-11.759-13.047-11.788-34.233-.065-47.321l89.484-99.9c11.723-13.087,11.694-34.275-.065-47.322h0c-11.76-13.047-30.8-13.015-42.518.072l-50.214,56.058c-11.723,13.087-30.76,13.119-42.518.072h0c-11.759-13.047-30.794-13.015-42.517.072l-65.471,73.089c-11.723,13.087-30.76,13.119-42.518.072h0c-11.759-13.047-11.788-34.233-.065-47.321l26.2-29.252c11.723-13.087,11.694-34.273-.065-47.321h0c-11.759-13.048-11.788-34.235-.065-47.322l53.4-59.612c11.724-13.087,11.7-34.273-.065-47.322h0c-11.759-13.047-30.794-13.015-42.517.072l-53.4,59.613c-11.723,13.087-30.758,13.119-42.517.072h0c-11.759-13.049-30.794-13.016-42.518.071L152.1,811.255c-11.723,13.087-11.694,34.273.065,47.322h0c11.759,13.047,30.794,13.015,42.518-.072l53.4-59.613c11.723-13.087,30.758-13.119,42.517-.072h0c11.759,13.049,11.788,34.235.065,47.322l-53.4,59.612c-11.723,13.087-11.694,34.275.065,47.322h0c11.759,13.047,11.788,34.233.065,47.321l-26.2,29.252c-11.723,13.087-11.694,34.273.065,47.32h0c11.759,13.049,30.8,13.015,42.518-.072l65.471-73.089c11.723-13.087,30.758-13.119,42.517-.072h0c11.759,13.047,30.8,13.015,42.518-.072L454.5,947.6C466.219,934.518,485.256,934.486,497.015,947.533Z" transform="translate(-143.327 -404.798)" fill="#e7eaef"/>
        <path id="Path_28324" data-name="Path 28324" d="M37.735,3.516c17.94-.959,31.705,12.806,30.746,30.746s-16.28,33.26-34.22,34.22S2.556,55.675,3.516,37.735,19.8,4.475,37.735,3.516Z" transform="translate(659.293 576.216) rotate(-45)" fill="#e7eaef"/>
        <path id="Path_28325" data-name="Path 28325" d="M32.054.635C49.064.4,62.662,15.5,62.426,34.373S48.209,68.731,31.2,68.968.59,54.1.827,35.229,15.044.871,32.054.635Z" transform="translate(555.715 133.603) rotate(-7.128)" fill="#e7eaef"/>
        <path id="Path_28326" data-name="Path 28326" d="M1426.983,1717.718l-.521-.578c-11.88-13.186-11.909-34.593-.064-47.817l5.092-5.684c11.845-13.225,11.818-34.631-.062-47.817l-.522-.578c-11.88-13.186-11.909-34.594-.062-47.818l45.924-51.268c11.988-13.384,11.959-35.051-.066-48.393h0c-12.025-13.344-31.493-13.31-43.481.073l-67.872,75.771c-11.845,13.224-31.08,13.256-42.96.071l-.522-.578c-11.881-13.185-11.909-34.591-.064-47.816l149.365-166.747c11.989-13.384,11.959-35.051-.066-48.395h0c-12.026-13.342-31.493-13.31-43.482.075l-149.366,166.749c-11.845,13.223-31.08,13.256-42.961.072l-.522-.578c-11.88-13.185-11.909-34.591-.064-47.816l341.887-381.674c11.989-13.384,31.457-13.416,43.482-.074h0c12.025,13.344,31.493,13.31,43.482-.073l149.107-166.459c11.988-13.384,31.456-13.417,43.481-.073h0c12.025,13.344,12.055,35.011.066,48.395L1707.1,1065.143c-11.989,13.384-11.959,35.051.066,48.393h0c12.025,13.344,31.493,13.31,43.481-.073l67.612-75.48c11.989-13.384,31.457-13.416,43.482-.073h0c12.025,13.344,12.055,35.011.066,48.394l-45.666,50.98c-11.989,13.385-11.959,35.052.066,48.394h0c12.025,13.344,12.055,35.011.066,48.394l-4.577,5.109c-11.988,13.384-11.959,35.051.066,48.395h0c12.025,13.342,12.054,35.009.066,48.394l-341.89,381.674C1458.1,1730.868,1438.865,1730.9,1426.983,1717.718Z" transform="translate(73.176 -258.655)" fill="#e7eaef"/>
        <path id="Path_28327" data-name="Path 28327" d="M32.673.936C49.715.6,63.257,15.6,62.919,34.434S48.493,68.816,31.451,69.153.868,54.493,1.2,35.655,15.631,1.273,32.673.936Z" transform="translate(1680.826 687.099) rotate(-10.295)" fill="#e7eaef"/>
      </g>
    </g>
  </g>
</svg>
